<svg width="24" height="24" viewBox="0 0 24 24" fill="none" xmlns="http://www.w3.org/2000/svg">
<path d="M9.33333 0H1.33333C0.6 0 0 0.6 0 1.33333V9.33333C0 10.0667 0.6 10.6667 1.33333 10.6667H9.33333C10.0667 10.6667 10.6667 10.0667 10.6667 9.33333V1.33333C10.6667 0.6 10.0667 0 9.33333 0ZM8 8H2.66667V2.66667H8V8Z" fill="#9F9F9F"/>
<path d="M22.6666 0H14.6666C13.9333 0 13.3333 0.6 13.3333 1.33333V9.33333C13.3333 10.0667 13.9333 10.6667 14.6666 10.6667H22.6666C23.4 10.6667 24 10.0667 24 9.33333V1.33333C24 0.6 23.4 0 22.6666 0ZM21.3333 8H16V2.66667H21.3333V8Z" fill="#9F9F9F"/>
<path d="M9.33333 13.3335H1.33333C0.6 13.3335 0 13.9335 0 14.6668V22.6668C0 23.4002 0.6 24.0002 1.33333 24.0002H9.33333C10.0667 24.0002 10.6667 23.4002 10.6667 22.6668V14.6668C10.6667 13.9335 10.0667 13.3335 9.33333 13.3335ZM8 21.3335H2.66667V16.0002H8V21.3335Z" fill="#9F9F9F"/>
<path d="M22.6666 13.3335H14.6666C13.9333 13.3335 13.3333 13.9335 13.3333 14.6668V22.6668C13.3333 23.4002 13.9333 24.0002 14.6666 24.0002H22.6666C23.4 24.0002 24 23.4002 24 22.6668V14.6668C24 13.9335 23.4 13.3335 22.6666 13.3335ZM21.3333 21.3335H16V16.0002H21.3333V21.3335Z" fill="#9F9F9F"/>
</svg>
